Coordinates
version=1
nRows=8
nColumns=63
inDegrees=yes

Units are S.I. units (second, meters, Newtons, ...)
If the header above contains a line with 'inDegrees', this indicates whether rotational values are in degrees (yes) or radians (no).

endheader
time	pelvis_tilt	pelvis_list	pelvis_rotation	pelvis_tx	pelvis_ty	pelvis_tz	hip_flexion_r	hip_adduction_r	hip_rotation_r	knee_angle_r	knee_angle_r_beta	ankle_angle_r	subtalar_angle_r	mtp_angle_r	hip_flexion_l	hip_adduction_l	hip_rotation_l	knee_angle_l	knee_angle_l_beta	ankle_angle_l	subtalar_angle_l	mtp_angle_l	L5_S1_Flex_Ext	L5_S1_Lat_Bending	L5_S1_axial_rotation	L4_L5_Flex_Ext	L4_L5_Lat_Bending	L4_L5_axial_rotation	L3_L4_Flex_Ext	L3_L4_Lat_Bending	L3_L4_axial_rotation	L2_L3_Flex_Ext	L2_L3_Lat_Bending	L2_L3_axial_rotation	L1_L2_Flex_Ext	L1_L2_Lat_Bending	L1_L2_axial_rotation	L1_T12_Flex_Ext	L1_T12_Lat_Bending	L1_T12_axial_rotation	Abs_r3	Abs_r2	Abs_r1	Abs_t1	Abs_t2	neck_flexion	neck_bending	neck_rotation	arm_flex_r	arm_add_r	arm_rot_r	elbow_flex_r	pro_sup_r	wrist_flex_r	wrist_dev_r	arm_flex_l	arm_add_l	arm_rot_l	elbow_flex_l	pro_sup_l	wrist_flex_l	wrist_dev_l
2.500000	0.065650	-3.649014	93.444109	0.182837	1.005835	0.464351	1.535278	-1.031811	-21.383330	12.410904	0.216611	29.241784	11.616136	0.000000	0.454093	-0.478442	-10.812834	6.213561	0.108447	24.337441	8.355958	0.000000	0.175946	0.324622	-0.997238	0.326750	0.431747	-1.059565	0.289062	0.789285	-1.059565	0.201089	0.789285	-0.872583	0.163384	0.661969	-0.810256	0.100536	0.502839	-0.747928	1.256766	3.672186	-5.546338	0.000000	0.000000	25.033571	4.492050	5.245059	8.480187	-5.422216	43.154567	49.736970	47.221949	-1.553167	17.959624	12.432530	-6.122591	54.957164	44.987577	86.365750	-8.688441	1.993992
2.516667	0.064913	-3.658883	93.474155	0.182850	1.005747	0.464473	1.535352	-1.029428	-21.450478	12.412703	0.216643	29.196712	11.573445	0.000000	0.495873	-0.494483	-11.000329	6.278377	0.109578	24.373300	8.574170	0.000000	0.173837	0.323347	-0.992010	0.322832	0.430051	-1.054011	0.285597	0.786185	-1.054011	0.198678	0.786185	-0.868009	0.161425	0.659369	-0.806008	0.099330	0.500864	-0.744008	1.241699	3.657764	-5.517263	0.000000	0.000000	24.879773	4.488165	5.320065	8.461529	-5.406474	42.924862	49.922022	46.070678	-1.864342	18.005727	12.729262	-6.229184	55.913419	45.011113	86.778989	-8.702657	2.146354
2.533333	0.063742	-3.684495	93.557215	0.182826	1.005677	0.464664	1.553105	-1.030905	-21.575830	12.429191	0.216930	29.122174	11.500903	0.000000	0.572703	-0.507939	-11.091619	6.346599	0.110769	24.441802	8.814254	0.000000	0.172503	0.321357	-0.999439	0.320356	0.427404	-1.061904	0.283406	0.781347	-1.061904	0.197154	0.781347	-0.874509	0.160187	0.655311	-0.812044	0.098568	0.497782	-0.749579	1.232174	3.635252	-5.558579	0.000000	0.000000	24.730522	4.537221	5.443554	8.454822	-5.382272	42.793189	50.109042	44.245147	-2.374591	18.094506	13.018917	-6.348383	56.852738	45.042550	87.234819	-8.603365	2.328320
2.550000	0.063314	-3.721304	93.678564	0.182759	1.005626	0.464907	1.588891	-1.032558	-21.697852	12.464262	0.217542	29.018929	11.344003	0.000000	0.664862	-0.511787	-10.981766	6.388737	0.111504	24.511056	8.921711	0.000000	0.171997	0.318958	-1.014129	0.319415	0.424213	-1.077512	0.282574	0.775513	-1.077512	0.196575	0.775513	-0.887363	0.159716	0.650418	-0.823980	0.098279	0.494065	-0.760597	1.228556	3.608111	-5.640281	0.000000	0.000000	24.599875	4.599640	5.563874	8.447334	-5.358062	42.726452	50.281964	42.106390	-2.954605	18.216139	13.310356	-6.461699	57.795840	45.058210	87.673506	-8.480507	2.493422
2.566667	0.067711	-3.766158	93.823229	0.182657	1.005595	0.465176	1.636310	-1.031577	-21.828597	12.508375	0.218312	28.893858	11.155045	0.000000	0.768942	-0.508481	-10.647081	6.412625	0.111921	24.571927	8.821170	0.000000	0.172295	0.317050	-1.036188	0.319968	0.421677	-1.100949	0.283063	0.770876	-1.100949	0.196916	0.770876	-0.906664	0.159993	0.646529	-0.841902	0.098449	0.491111	-0.777141	1.230684	3.586537	-5.762965	0.000000	0.000000	24.504391	4.694072	5.721503	8.445390	-5.337028	42.746215	50.437270	39.780100	-3.587833	18.358390	13.561814	-6.550670	58.613134	45.043791	88.044845	-8.325250	2.563888
2.583333	0.072476	-3.810244	93.991966	0.182536	1.005595	0.465468	1.682161	-1.025338	-21.931554	12.544906	0.218950	28.748337	10.897607	0.000000	0.875658	-0.497127	-10.130844	6.423699	0.112115	24.620493	8.551130	0.000000	0.172239	0.314912	-1.064174	0.319865	0.418833	-1.130685	0.282971	0.765677	-1.130685	0.196852	0.765677	-0.931152	0.159941	0.642169	-0.864641	0.098417	0.487799	-0.798130	1.230285	3.562348	-5.918616	0.000000	0.000000	24.460473	4.812486	5.895532	8.457508	-5.318284	42.860496	50.545810	37.508557	-4.180002	18.449073	13.802982	-6.629353	59.389290	45.007267	88.159503	-8.187235	2.574428
2.600000	0.081520	-3.860024	94.167485	0.182382	1.005614	0.465747	1.734935	-1.025256	-22.096257	12.583900	0.219630	28.612370	10.737448	0.000000	0.985172	-0.485466	-9.562722	6.421036	0.112068	24.671520	8.254453	0.000000	0.173879	0.313708	-1.094738	0.322910	0.417232	-1.163159	0.285665	0.762751	-1.163159	0.198726	0.762751	-0.957895	0.161464	0.639714	-0.889474	0.099354	0.485934	-0.821053	1.241997	3.548733	-6.088602	0.000000	0.000000	24.452116	4.929895	6.090561	8.466545	-5.306069	43.015308	50.619932	35.445382	-4.709849	18.548396	14.000845	-6.668499	60.008412	44.916446	88.255937	-7.995144	2.466349
2.616667	0.092636	-3.907999	94.351289	0.182198	1.005661	0.466007	1.784323	-1.027331	-22.272645	12.612110	0.220123	28.487280	10.619410	0.000000	1.086622	-0.469384	-8.912251	6.401083	0.111720	24.705453	7.868003	0.000000	0.176021	0.313192	-1.126511	0.326889	0.416546	-1.196918	0.289185	0.761496	-1.196918	0.201174	0.761496	-0.985697	0.163453	0.638662	-0.915290	0.100578	0.485135	-0.844883	1.257300	3.542895	-6.265314	0.000000	0.000000	24.473573	5.024675	6.285541	8.480688	-5.301263	43.212993	50.646027	33.672961	-5.161531	18.630502	14.193446	-6.682229	60.605375	44.771777	88.306660	-7.854644	2.244804
